<mxfile host="app.diagrams.net" agent="Mozilla/5.0 (Windows NT 10.0; Win64; x64) AppleWebKit/537.36 (KHTML, like Gecko) Chrome/131.0.0.0 Safari/537.36" version="25.0.3">
  <diagram name="Page-1" id="o6Z2AFFSlycS61Pjzlzi">
    <mxGraphModel dx="1032" dy="501" grid="1" gridSize="10" guides="1" tooltips="1" connect="1" arrows="1" fold="1" page="1" pageScale="1" pageWidth="1169" pageHeight="827" math="0" shadow="0">
      <root>
        <mxCell id="0" />
        <mxCell id="1" parent="0" />
        <mxCell id="_1Tu3L8d5V70J_ynRbRt-1" value="&lt;font style=&quot;font-size: 16px;&quot;&gt;&lt;b&gt;Satellite Image&lt;/b&gt;&lt;/font&gt;" style="rounded=0;whiteSpace=wrap;html=1;fillColor=#f5f5f5;gradientColor=#b3b3b3;strokeColor=#666666;shadow=0;" vertex="1" parent="1">
          <mxGeometry x="250" y="20" width="280" height="40" as="geometry" />
        </mxCell>
        <mxCell id="_1Tu3L8d5V70J_ynRbRt-2" value="&lt;b style=&quot;font-size: 16px;&quot;&gt;Land use cover (1984, 2004, 2014, 2024)&lt;/b&gt;" style="rounded=0;whiteSpace=wrap;html=1;fillColor=#f5f5f5;gradientColor=#b3b3b3;strokeColor=#666666;shadow=0;" vertex="1" parent="1">
          <mxGeometry x="190" y="90" width="420" height="60" as="geometry" />
        </mxCell>
        <mxCell id="_1Tu3L8d5V70J_ynRbRt-3" value="" style="rounded=0;whiteSpace=wrap;html=1;fillColor=#f5f5f5;gradientColor=#b3b3b3;strokeColor=#666666;shadow=0;" vertex="1" parent="1">
          <mxGeometry x="100" y="190" width="280" height="450" as="geometry" />
        </mxCell>
        <mxCell id="_1Tu3L8d5V70J_ynRbRt-5" value="&lt;font style=&quot;font-size: 16px;&quot;&gt;&lt;b&gt;Soil Erosion&lt;/b&gt;&lt;/font&gt;" style="rounded=0;whiteSpace=wrap;html=1;strokeColor=none;" vertex="1" parent="1">
          <mxGeometry x="146.25" y="210" width="160" height="30" as="geometry" />
        </mxCell>
        <mxCell id="_1Tu3L8d5V70J_ynRbRt-8" value="" style="rounded=0;whiteSpace=wrap;html=1;fillColor=#f5f5f5;gradientColor=#b3b3b3;strokeColor=#666666;shadow=0;" vertex="1" parent="1">
          <mxGeometry x="466.25" y="190" width="270" height="450" as="geometry" />
        </mxCell>
        <mxCell id="_1Tu3L8d5V70J_ynRbRt-11" value="" style="endArrow=classic;html=1;rounded=0;" edge="1" parent="1">
          <mxGeometry width="50" height="50" relative="1" as="geometry">
            <mxPoint x="389.5" y="60" as="sourcePoint" />
            <mxPoint x="390" y="90" as="targetPoint" />
          </mxGeometry>
        </mxCell>
        <mxCell id="_1Tu3L8d5V70J_ynRbRt-12" value="&lt;font style=&quot;font-size: 16px;&quot;&gt;&lt;b&gt;Landscape Index&lt;/b&gt;&lt;/font&gt;" style="rounded=0;whiteSpace=wrap;html=1;strokeColor=none;" vertex="1" parent="1">
          <mxGeometry x="530" y="210" width="140" height="30" as="geometry" />
        </mxCell>
        <mxCell id="_1Tu3L8d5V70J_ynRbRt-13" value="" style="rounded=0;whiteSpace=wrap;html=1;strokeColor=#FF142C;" vertex="1" parent="1">
          <mxGeometry x="125.63" y="260" width="227.5" height="240" as="geometry" />
        </mxCell>
        <mxCell id="_1Tu3L8d5V70J_ynRbRt-14" value="&lt;font style=&quot;font-size: 16px;&quot;&gt;&lt;b&gt;RUSLE Model&lt;/b&gt;&lt;/font&gt;" style="rounded=0;whiteSpace=wrap;html=1;strokeColor=none;" vertex="1" parent="1">
          <mxGeometry x="169.38" y="270" width="140" height="30" as="geometry" />
        </mxCell>
        <mxCell id="_1Tu3L8d5V70J_ynRbRt-15" value="&lt;font style=&quot;font-size: 16px;&quot;&gt;R-Factor&lt;/font&gt;" style="rounded=0;whiteSpace=wrap;html=1;strokeColor=#00FF00;" vertex="1" parent="1">
          <mxGeometry x="133.13" y="310" width="80" height="50" as="geometry" />
        </mxCell>
        <mxCell id="_1Tu3L8d5V70J_ynRbRt-16" value="&lt;font style=&quot;font-size: 16px;&quot;&gt;K-Factor&lt;/font&gt;" style="rounded=0;whiteSpace=wrap;html=1;strokeColor=#FF33FF;" vertex="1" parent="1">
          <mxGeometry x="273.13" y="310" width="72.5" height="50" as="geometry" />
        </mxCell>
        <mxCell id="_1Tu3L8d5V70J_ynRbRt-17" value="&lt;font style=&quot;font-size: 16px;&quot;&gt;LS-Factor&lt;/font&gt;" style="rounded=0;whiteSpace=wrap;html=1;strokeColor=#FF8000;" vertex="1" parent="1">
          <mxGeometry x="133.13" y="420" width="80" height="60" as="geometry" />
        </mxCell>
        <mxCell id="_1Tu3L8d5V70J_ynRbRt-19" value="&lt;font style=&quot;font-size: 16px;&quot;&gt;P-Factor&lt;/font&gt;" style="rounded=0;whiteSpace=wrap;html=1;strokeColor=#33FFFF;" vertex="1" parent="1">
          <mxGeometry x="273.13" y="420" width="70" height="60" as="geometry" />
        </mxCell>
        <mxCell id="_1Tu3L8d5V70J_ynRbRt-20" value="&lt;font style=&quot;font-size: 16px;&quot;&gt;C-Factor&lt;/font&gt;" style="rounded=0;whiteSpace=wrap;html=1;strokeColor=#000099;" vertex="1" parent="1">
          <mxGeometry x="203.13" y="367.5" width="72.5" height="45" as="geometry" />
        </mxCell>
        <mxCell id="_1Tu3L8d5V70J_ynRbRt-22" value="" style="rounded=0;whiteSpace=wrap;html=1;strokeColor=#FF142C;" vertex="1" parent="1">
          <mxGeometry x="494.38" y="260" width="217.5" height="240" as="geometry" />
        </mxCell>
        <mxCell id="_1Tu3L8d5V70J_ynRbRt-23" value="&lt;font style=&quot;font-size: 16px;&quot;&gt;&lt;b&gt;FRAGSTRAT&lt;/b&gt;&lt;/font&gt;" style="rounded=0;whiteSpace=wrap;html=1;strokeColor=none;" vertex="1" parent="1">
          <mxGeometry x="534.38" y="270" width="140" height="30" as="geometry" />
        </mxCell>
        <mxCell id="_1Tu3L8d5V70J_ynRbRt-24" value="&lt;font style=&quot;font-size: 16px;&quot;&gt;AI&lt;/font&gt;" style="rounded=0;whiteSpace=wrap;html=1;strokeColor=#000099;" vertex="1" parent="1">
          <mxGeometry x="576.88" y="380" width="62.5" height="50" as="geometry" />
        </mxCell>
        <mxCell id="_1Tu3L8d5V70J_ynRbRt-25" value="&lt;font style=&quot;font-size: 16px;&quot;&gt;LDI&lt;/font&gt;" style="rounded=0;whiteSpace=wrap;html=1;strokeColor=#FF33FF;" vertex="1" parent="1">
          <mxGeometry x="633.13" y="320" width="68.13" height="50" as="geometry" />
        </mxCell>
        <mxCell id="_1Tu3L8d5V70J_ynRbRt-26" value="&lt;font style=&quot;font-size: 16px;&quot;&gt;LSI&lt;/font&gt;" style="rounded=0;whiteSpace=wrap;html=1;strokeColor=#FF8000;" vertex="1" parent="1">
          <mxGeometry x="504.38" y="430" width="67.5" height="50" as="geometry" />
        </mxCell>
        <mxCell id="_1Tu3L8d5V70J_ynRbRt-27" value="&lt;span style=&quot;font-size: 16px;&quot;&gt;PD&lt;/span&gt;" style="rounded=0;whiteSpace=wrap;html=1;strokeColor=#33FFFF;" vertex="1" parent="1">
          <mxGeometry x="637.51" y="440" width="63.75" height="50" as="geometry" />
        </mxCell>
        <mxCell id="_1Tu3L8d5V70J_ynRbRt-28" value="&lt;font style=&quot;font-size: 16px;&quot;&gt;SHDI&lt;/font&gt;" style="rounded=0;whiteSpace=wrap;html=1;strokeColor=#00FF00;" vertex="1" parent="1">
          <mxGeometry x="504.38" y="320" width="67.5" height="50" as="geometry" />
        </mxCell>
        <mxCell id="_1Tu3L8d5V70J_ynRbRt-29" style="edgeStyle=orthogonalEdgeStyle;rounded=0;orthogonalLoop=1;jettySize=auto;html=1;exitX=0;exitY=0.25;exitDx=0;exitDy=0;entryX=0.216;entryY=0.001;entryDx=0;entryDy=0;entryPerimeter=0;" edge="1" parent="1" source="_1Tu3L8d5V70J_ynRbRt-2" target="_1Tu3L8d5V70J_ynRbRt-3">
          <mxGeometry relative="1" as="geometry" />
        </mxCell>
        <mxCell id="_1Tu3L8d5V70J_ynRbRt-30" style="edgeStyle=orthogonalEdgeStyle;rounded=0;orthogonalLoop=1;jettySize=auto;html=1;exitX=1;exitY=0.5;exitDx=0;exitDy=0;entryX=0.715;entryY=0.001;entryDx=0;entryDy=0;entryPerimeter=0;" edge="1" parent="1" source="_1Tu3L8d5V70J_ynRbRt-2" target="_1Tu3L8d5V70J_ynRbRt-8">
          <mxGeometry relative="1" as="geometry" />
        </mxCell>
        <mxCell id="_1Tu3L8d5V70J_ynRbRt-31" value="&lt;font style=&quot;font-size: 16px;&quot;&gt;1984,&amp;nbsp;&lt;/font&gt;&lt;span style=&quot;font-size: 16px; background-color: initial;&quot;&gt;2004, 2014, 2024&lt;/span&gt;" style="rounded=0;whiteSpace=wrap;html=1;" vertex="1" parent="1">
          <mxGeometry x="129.38" y="510" width="220" height="50" as="geometry" />
        </mxCell>
        <mxCell id="_1Tu3L8d5V70J_ynRbRt-32" value="&lt;span style=&quot;font-size: 16px;&quot;&gt;Dynamic Change&lt;/span&gt;" style="rounded=0;whiteSpace=wrap;html=1;" vertex="1" parent="1">
          <mxGeometry x="129.38" y="570" width="220" height="50" as="geometry" />
        </mxCell>
        <mxCell id="_1Tu3L8d5V70J_ynRbRt-33" value="&lt;font style=&quot;font-size: 16px;&quot;&gt;1984,&amp;nbsp;&lt;/font&gt;&lt;span style=&quot;font-size: 16px; background-color: initial;&quot;&gt;2004, 2014, 2024&lt;/span&gt;" style="rounded=0;whiteSpace=wrap;html=1;" vertex="1" parent="1">
          <mxGeometry x="491.88" y="510" width="220" height="50" as="geometry" />
        </mxCell>
        <mxCell id="_1Tu3L8d5V70J_ynRbRt-34" value="&lt;span style=&quot;font-size: 16px;&quot;&gt;Dynamic Change&lt;/span&gt;" style="rounded=0;whiteSpace=wrap;html=1;" vertex="1" parent="1">
          <mxGeometry x="494.38" y="570" width="220" height="50" as="geometry" />
        </mxCell>
        <mxCell id="_1Tu3L8d5V70J_ynRbRt-37" style="edgeStyle=orthogonalEdgeStyle;rounded=0;orthogonalLoop=1;jettySize=auto;html=1;exitX=0.5;exitY=1;exitDx=0;exitDy=0;entryX=0.5;entryY=0;entryDx=0;entryDy=0;" edge="1" parent="1" source="_1Tu3L8d5V70J_ynRbRt-35" target="_1Tu3L8d5V70J_ynRbRt-36">
          <mxGeometry relative="1" as="geometry" />
        </mxCell>
        <mxCell id="_1Tu3L8d5V70J_ynRbRt-35" value="&lt;span style=&quot;font-size: 16px;&quot;&gt;&lt;b&gt;Statistical Analysis&lt;/b&gt;&lt;/span&gt;" style="rounded=0;whiteSpace=wrap;html=1;fillColor=#f5f5f5;gradientColor=#b3b3b3;strokeColor=#666666;" vertex="1" parent="1">
          <mxGeometry x="100" y="670" width="640" height="40" as="geometry" />
        </mxCell>
        <mxCell id="_1Tu3L8d5V70J_ynRbRt-36" value="&lt;span style=&quot;font-size: 16px;&quot;&gt;&lt;b&gt;Impact of Landscape configuration on Soil Erosion&lt;/b&gt;&lt;/span&gt;" style="rounded=0;whiteSpace=wrap;html=1;fillColor=#f5f5f5;gradientColor=#b3b3b3;strokeColor=#666666;" vertex="1" parent="1">
          <mxGeometry x="100" y="730" width="640" height="40" as="geometry" />
        </mxCell>
        <mxCell id="_1Tu3L8d5V70J_ynRbRt-39" value="" style="endArrow=classic;html=1;rounded=0;" edge="1" parent="1">
          <mxGeometry width="50" height="50" relative="1" as="geometry">
            <mxPoint x="200" y="640" as="sourcePoint" />
            <mxPoint x="200" y="670" as="targetPoint" />
          </mxGeometry>
        </mxCell>
        <mxCell id="_1Tu3L8d5V70J_ynRbRt-40" value="" style="endArrow=classic;html=1;rounded=0;" edge="1" parent="1">
          <mxGeometry width="50" height="50" relative="1" as="geometry">
            <mxPoint x="580" y="640" as="sourcePoint" />
            <mxPoint x="580" y="670" as="targetPoint" />
          </mxGeometry>
        </mxCell>
      </root>
    </mxGraphModel>
  </diagram>
</mxfile>
